<?xml version="1.0" encoding="utf-8"?>
<svg version="1.1" xmlns:xlink="http://www.w3.org/1999/xlink" width="85px" height="85px" xmlns="http://www.w3.org/2000/svg">
  <defs>
    <pattern id="BGPattern" patternUnits="userSpaceOnUse" alignment="0 0" imageRepeat="None" />
    <mask fill="white" id="Clip484">
      <path d="M 0 42.5  C 0 18.7  18.7 0  42.5 0  C 66.3 0  85 18.7  85 42.5  C 85 66.3  66.3 85  42.5 85  C 18.7 85  0 66.3  0 42.5  Z " fill-rule="evenodd" />
    </mask>
  </defs>
  <g transform="matrix(1 0 0 1 -16 -16 )">
    <path d="M 0 42.5  C 0 18.7  18.7 0  42.5 0  C 66.3 0  85 18.7  85 42.5  C 85 66.3  66.3 85  42.5 85  C 18.7 85  0 66.3  0 42.5  Z " fill-rule="nonzero" fill="rgba(9, 8, 71, 1)" stroke="none" transform="matrix(1 0 0 1 16 16 )" class="fill" />
    <path d="M 0 42.5  C 0 18.7  18.7 0  42.5 0  C 66.3 0  85 18.7  85 42.5  C 85 66.3  66.3 85  42.5 85  C 18.7 85  0 66.3  0 42.5  Z " stroke-width="2" stroke-dasharray="0" stroke="rgba(121, 121, 121, 0)" fill="none" transform="matrix(1 0 0 1 16 16 )" class="stroke" mask="url(#Clip484)" />
  </g>
</svg>