<?xml version="1.0" encoding="utf-8"?>
<svg version="1.1" xmlns:xlink="http://www.w3.org/1999/xlink" width="90px" height="90px" xmlns="http://www.w3.org/2000/svg">
  <defs>
    <pattern id="BGPattern" patternUnits="userSpaceOnUse" alignment="0 0" imageRepeat="None" />
    <mask fill="white" id="Clip1771">
      <path d="M 0 45  C 0 19.799999999999997  19.799999999999997 0  45 0  C 70.2 0  90 19.799999999999997  90 45  C 90 70.2  70.2 90  45 90  C 19.799999999999997 90  0 70.2  0 45  Z " fill-rule="evenodd" />
    </mask>
  </defs>
  <g transform="matrix(1 0 0 1 -13 -13 )">
    <path d="M 0 45  C 0 19.799999999999997  19.799999999999997 0  45 0  C 70.2 0  90 19.799999999999997  90 45  C 90 70.2  70.2 90  45 90  C 19.799999999999997 90  0 70.2  0 45  Z " fill-rule="nonzero" fill="rgba(9, 8, 71, 1)" stroke="none" transform="matrix(1 0 0 1 13 13 )" class="fill" />
    <path d="M 0 45  C 0 19.799999999999997  19.799999999999997 0  45 0  C 70.2 0  90 19.799999999999997  90 45  C 90 70.2  70.2 90  45 90  C 19.799999999999997 90  0 70.2  0 45  Z " stroke-width="2" stroke-dasharray="0" stroke="rgba(121, 121, 121, 0)" fill="none" transform="matrix(1 0 0 1 13 13 )" class="stroke" mask="url(#Clip1771)" />
  </g>
</svg>