<?xml version="1.0" encoding="utf-8"?>
<svg version="1.1" xmlns:xlink="http://www.w3.org/1999/xlink" width="258px" height="40px" xmlns="http://www.w3.org/2000/svg">
  <defs>
    <linearGradient gradientUnits="userSpaceOnUse" x1="0" y1="14" x2="227" y2="14" id="LinearGradient3548">
      <stop id="Stop3549" stop-color="#050372" offset="0" />
      <stop id="Stop3550" stop-color="#030091" offset="1" />
    </linearGradient>
    <pattern id="BGPattern" patternUnits="userSpaceOnUse" alignment="0 0" imageRepeat="None" />
    <mask fill="white" id="Clip3551">
      <path d="M 0 23  L 0 5  C 0 2.2  2.1999999999999997 0  5 0  L 222 0  C 224.79999999999998 0  227 2.2  227 5  L 227 23  C 227 25.8  224.79999999999998 28  222 28  L 5 28  C 2.1999999999999997 28  0 25.8  0 23  Z " fill-rule="evenodd" />
    </mask>
  </defs>
  <g transform="matrix(1 0 0 1 0 -1 )">
    <path d="M 0 23  L 0 5  C 0 2.2  2.1999999999999997 0  5 0  L 222 0  C 224.79999999999998 0  227 2.2  227 5  L 227 23  C 227 25.8  224.79999999999998 28  222 28  L 5 28  C 2.1999999999999997 28  0 25.8  0 23  Z " fill-rule="nonzero" fill="url(#LinearGradient3548)" stroke="none" transform="matrix(1 0 0 1 0 1 )" class="fill" />
    <path d="M 0 23  L 0 5  C 0 2.2  2.1999999999999997 0  5 0  L 222 0  C 224.79999999999998 0  227 2.2  227 5  L 227 23  C 227 25.8  224.79999999999998 28  222 28  L 5 28  C 2.1999999999999997 28  0 25.8  0 23  Z " stroke-width="0" stroke-dasharray="0" stroke="rgba(121, 121, 121, 0)" fill="none" transform="matrix(1 0 0 1 0 1 )" class="stroke" mask="url(#Clip3551)" />
  </g>
</svg>