<?xml version="1.0" encoding="utf-8"?>
<svg version="1.1" xmlns:xlink="http://www.w3.org/1999/xlink" width="1427px" height="542px" xmlns="http://www.w3.org/2000/svg">
  <defs>
    <radialGradient cx="572.0623278236862" cy="215.71583662713758" r="684.0887981982822" gradientTransform="matrix(-0.9974639010022337 -0.0711741961486476 0.052803537822500544 -0.7400100833334269 1131.2832896128657 416.0638071957006 )" gradientUnits="userSpaceOnUse" id="RadialGradient3544">
      <stop id="Stop3545" stop-color="#ffffff" stop-opacity="0.996078431372549" offset="0" />
      <stop id="Stop3546" stop-color="#ededed" stop-opacity="0.996078431372549" offset="1" />
    </radialGradient>
    <pattern id="BGPattern" patternUnits="userSpaceOnUse" alignment="0 0" imageRepeat="None" />
    <mask fill="white" id="Clip3547">
      <path d="M 0 512  L 0 20  C 0 8.799999999999999  8.799999999999999 0  20 0  L 1397 0  C 1408.2 0  1417 8.799999999999999  1417 20  L 1417 512  C 1417 523.2  1408.2 532  1397 532  L 20 532  C 8.799999999999999 532  0 523.2  0 512  Z " fill-rule="evenodd" />
    </mask>
  </defs>
  <g transform="matrix(1 0 0 1 -252 -1450 )">
    <path d="M 0 512  L 0 20  C 0 8.799999999999999  8.799999999999999 0  20 0  L 1397 0  C 1408.2 0  1417 8.799999999999999  1417 20  L 1417 512  C 1417 523.2  1408.2 532  1397 532  L 20 532  C 8.799999999999999 532  0 523.2  0 512  Z " fill-rule="nonzero" fill="url(#RadialGradient3544)" stroke="none" transform="matrix(1 0 0 1 252 1450 )" class="fill" />
    <path d="M 0 512  L 0 20  C 0 8.799999999999999  8.799999999999999 0  20 0  L 1397 0  C 1408.2 0  1417 8.799999999999999  1417 20  L 1417 512  C 1417 523.2  1408.2 532  1397 532  L 20 532  C 8.799999999999999 532  0 523.2  0 512  Z " stroke-width="4" stroke-dasharray="0" stroke="rgba(255, 255, 255, 0)" fill="none" transform="matrix(1 0 0 1 252 1450 )" class="stroke" mask="url(#Clip3547)" />
  </g>
  <style>svg { filter: drop-shadow(5px 5px 2.5px rgba(0, 0, 0, 0.34901960784313724)); }</style>
</svg>