<?xml version="1.0" encoding="utf-8"?>
<svg version="1.1" xmlns:xlink="http://www.w3.org/1999/xlink" width="1154px" height="542px" xmlns="http://www.w3.org/2000/svg">
  <defs>
    <radialGradient cx="461.84848484848067" cy="215.71583662713758" r="554.3637876408498" gradientTransform="matrix(-0.9706560224108001 -0.24047221493894974 0.21932936401430697 -0.885313790310728 862.8316808527173 517.7537696992706 )" gradientUnits="userSpaceOnUse" id="RadialGradient1784">
      <stop id="Stop1785" stop-color="#ffffff" stop-opacity="0.996078431372549" offset="0" />
      <stop id="Stop1786" stop-color="#ededed" stop-opacity="0.996078431372549" offset="1" />
    </radialGradient>
    <pattern id="BGPattern" patternUnits="userSpaceOnUse" alignment="0 0" imageRepeat="None" />
    <mask fill="white" id="Clip1787">
      <path d="M 0 512  L 0 20  C 0 8.799999999999999  8.799999999999999 0  20 0  L 1124 0  C 1135.2 0  1144 8.799999999999999  1144 20  L 1144 512  C 1144 523.2  1135.2 532  1124 532  L 20 532  C 8.799999999999999 532  0 523.2  0 512  Z " fill-rule="evenodd" />
    </mask>
  </defs>
  <g transform="matrix(1 0 0 1 -203 -1450 )">
    <path d="M 0 512  L 0 20  C 0 8.799999999999999  8.799999999999999 0  20 0  L 1124 0  C 1135.2 0  1144 8.799999999999999  1144 20  L 1144 512  C 1144 523.2  1135.2 532  1124 532  L 20 532  C 8.799999999999999 532  0 523.2  0 512  Z " fill-rule="nonzero" fill="url(#RadialGradient1784)" stroke="none" transform="matrix(1 0 0 1 203 1450 )" class="fill" />
    <path d="M 0 512  L 0 20  C 0 8.799999999999999  8.799999999999999 0  20 0  L 1124 0  C 1135.2 0  1144 8.799999999999999  1144 20  L 1144 512  C 1144 523.2  1135.2 532  1124 532  L 20 532  C 8.799999999999999 532  0 523.2  0 512  Z " stroke-width="4" stroke-dasharray="0" stroke="rgba(255, 255, 255, 0)" fill="none" transform="matrix(1 0 0 1 203 1450 )" class="stroke" mask="url(#Clip1787)" />
  </g>
  <style>svg { filter: drop-shadow(5px 5px 2.5px rgba(0, 0, 0, 0.34901960784313724)); }</style>
</svg>