<?xml version="1.0" encoding="utf-8"?>
<svg version="1.1" xmlns:xlink="http://www.w3.org/1999/xlink" width="1427px" height="542px" xmlns="http://www.w3.org/2000/svg">
  <defs>
    <radialGradient cx="406.9434202161438" cy="215.71583662713758" r="512.7230926500192" gradientTransform="matrix(-0.37083005721889045 -0.9287007422539482 0.8725013878621481 -0.3483896640366944 369.6379051787255 668.7976608871536 )" gradientUnits="userSpaceOnUse" id="RadialGradient526">
      <stop id="Stop527" stop-color="#ffffff" stop-opacity="0.996078431372549" offset="0" />
      <stop id="Stop528" stop-color="#ededed" stop-opacity="0.996078431372549" offset="1" />
    </radialGradient>
    <pattern id="BGPattern" patternUnits="userSpaceOnUse" alignment="0 0" imageRepeat="None" />
    <mask fill="white" id="Clip529">
      <path d="M 0 512  L 0 20  C 0 8.799999999999999  8.799999999999999 0  20 0  L 988 0  C 999.2 0  1008 8.799999999999999  1008 20  L 1008 512  C 1008 523.2  999.2 532  988 532  L 20 532  C 8.799999999999999 532  0 523.2  0 512  Z " fill-rule="evenodd" />
    </mask>
  </defs>
  <g transform="matrix(1 0 0 1 -179 -1450 )">
    <path d="M 0 512  L 0 20  C 0 8.799999999999999  8.799999999999999 0  20 0  L 988 0  C 999.2 0  1008 8.799999999999999  1008 20  L 1008 512  C 1008 523.2  999.2 532  988 532  L 20 532  C 8.799999999999999 532  0 523.2  0 512  Z " fill-rule="nonzero" fill="url(#RadialGradient526)" stroke="none" transform="matrix(1 0 0 1 179 1450 )" class="fill" />
    <path d="M 0 512  L 0 20  C 0 8.799999999999999  8.799999999999999 0  20 0  L 988 0  C 999.2 0  1008 8.799999999999999  1008 20  L 1008 512  C 1008 523.2  999.2 532  988 532  L 20 532  C 8.799999999999999 532  0 523.2  0 512  Z " stroke-width="4" stroke-dasharray="0" stroke="rgba(255, 255, 255, 0)" fill="none" transform="matrix(1 0 0 1 179 1450 )" class="stroke" mask="url(#Clip529)" />
  </g>
  <style>svg { filter: drop-shadow(5px 5px 2.5px rgba(0, 0, 0, 0.34901960784313724)); }</style>
</svg>