<?xml version="1.0" encoding="utf-8"?>
<svg version="1.1" xmlns:xlink="http://www.w3.org/1999/xlink" width="70px" height="68px" xmlns="http://www.w3.org/2000/svg">
  <defs>
    <pattern id="BGPattern" patternUnits="userSpaceOnUse" alignment="0 0" imageRepeat="None" />
    <mask fill="white" id="Clip3557">
      <path d="M 0 35  C 0 15.399999999999999  15.399999999999999 0  35 0  C 54.6 0  70 15.399999999999999  70 35  C 70 54.6  54.6 70  35 70  C 15.399999999999999 70  0 54.6  0 35  Z " fill-rule="evenodd" />
    </mask>
  </defs>
  <g transform="matrix(1 0 0 1 -6 -23 )">
    <path d="M 0 35  C 0 15.399999999999999  15.399999999999999 0  35 0  C 54.6 0  70 15.399999999999999  70 35  C 70 54.6  54.6 70  35 70  C 15.399999999999999 70  0 54.6  0 35  Z " fill-rule="nonzero" fill="rgba(9, 8, 71, 1)" stroke="none" transform="matrix(1 0 0 1 6 23 )" class="fill" />
    <path d="M 0 35  C 0 15.399999999999999  15.399999999999999 0  35 0  C 54.6 0  70 15.399999999999999  70 35  C 70 54.6  54.6 70  35 70  C 15.399999999999999 70  0 54.6  0 35  Z " stroke-width="2" stroke-dasharray="0" stroke="rgba(121, 121, 121, 0)" fill="none" transform="matrix(1 0 0 1 6 23 )" class="stroke" mask="url(#Clip3557)" />
  </g>
</svg>