<?xml version="1.0" encoding="utf-8"?>
<svg version="1.1" xmlns:xlink="http://www.w3.org/1999/xlink" width="56px" height="54px" xmlns="http://www.w3.org/2000/svg">
  <defs>
    <pattern id="BGPattern" patternUnits="userSpaceOnUse" alignment="0 0" imageRepeat="None" />
    <mask fill="white" id="Clip3558">
      <path d="M 0 28  C 0 12.319999999999999  12.319999999999999 0  28 0  C 43.68 0  56 12.319999999999999  56 28  C 56 43.68  43.68 56  28 56  C 12.319999999999999 56  0 43.68  0 28  Z " fill-rule="evenodd" />
    </mask>
  </defs>
  <g transform="matrix(1 0 0 1 -13 -30 )">
    <path d="M 0 28  C 0 12.319999999999999  12.319999999999999 0  28 0  C 43.68 0  56 12.319999999999999  56 28  C 56 43.68  43.68 56  28 56  C 12.319999999999999 56  0 43.68  0 28  Z " fill-rule="nonzero" fill="rgba(9, 8, 71, 1)" stroke="none" transform="matrix(1 0 0 1 13 30 )" class="fill" />
    <path d="M 0 28  C 0 12.319999999999999  12.319999999999999 0  28 0  C 43.68 0  56 12.319999999999999  56 28  C 56 43.68  43.68 56  28 56  C 12.319999999999999 56  0 43.68  0 28  Z " stroke-width="4" stroke-dasharray="0" stroke="rgba(249, 244, 244, 1)" fill="none" transform="matrix(1 0 0 1 13 30 )" class="stroke" mask="url(#Clip3558)" />
  </g>
</svg>