<?xml version="1.0" encoding="utf-8"?>
<svg version="1.1" xmlns:xlink="http://www.w3.org/1999/xlink" width="35px" height="34px" xmlns="http://www.w3.org/2000/svg">
  <defs>
    <pattern id="BGPattern" patternUnits="userSpaceOnUse" alignment="0 0" imageRepeat="None" />
    <mask fill="white" id="Clip3559">
      <path d="M 34.17508417508417 26.16161616161616  C 34.725028058361396 26.711560044893375  35 27.379349046015708  35 28.164983164983166  C 35 28.95061728395062  34.725028058361396 29.61840628507295  34.17508417508417 30.168350168350166  L 30.168350168350166 34.17508417508417  C 29.618406285072957 34.725028058361396  28.950617283950617 35  28.164983164983166 35  C 27.379349046015715 35  26.711560044893382 34.725028058361396  26.161616161616163 34.17508417508417  L 17.5 25.513468013468017  L 8.83838383838384 34.17508417508417  C 8.288439955106623 34.725028058361396  7.6206509539842875 35  6.835016835016835 35  C 6.049382716049383 35  5.381593714927049 34.725028058361396  4.831649831649832 34.17508417508417  L 0.8249158249158249 30.168350168350166  C 0.27497194163860855 29.61840628507295  0 28.95061728395062  0 28.164983164983166  C 0 27.379349046015708  0.27497194163860855 26.711560044893375  0.8249158249158249 26.16161616161616  L 9.486531986531986 17.5  L 0.8249158249158249 8.838383838383837  C 0.27497194163860855 8.288439955106618  0 7.6206509539842875  0 6.835016835016835  C 0 6.049382716049382  0.27497194163860855 5.381593714927043  0.8249158249158249 4.831649831649833  L 4.831649831649832 0.824915824915825  C 5.381593714927049 0.27497194163860705  6.049382716049383 0  6.835016835016835 0  C 7.6206509539842875 0  8.288439955106623 0.27497194163860705  8.83838383838384 0.824915824915825  L 17.5 9.486531986531988  L 26.161616161616163 0.824915824915825  C 26.711560044893382 0.27497194163860705  27.379349046015715 0  28.164983164983166 0  C 28.950617283950617 0  29.618406285072957 0.27497194163860705  30.168350168350166 0.824915824915825  L 34.17508417508417 4.831649831649833  C 34.725028058361396 5.381593714927043  35 6.049382716049382  35 6.835016835016835  C 35 7.6206509539842875  34.725028058361396 8.288439955106618  34.17508417508417 8.838383838383837  L 25.51346801346801 17.5  L 34.17508417508417 26.16161616161616  Z " fill-rule="evenodd" />
    </mask>
  </defs>
  <g transform="matrix(1 0 0 1 -24 -41 )">
    <path d="M 34.17508417508417 26.16161616161616  C 34.725028058361396 26.711560044893375  35 27.379349046015708  35 28.164983164983166  C 35 28.95061728395062  34.725028058361396 29.61840628507295  34.17508417508417 30.168350168350166  L 30.168350168350166 34.17508417508417  C 29.618406285072957 34.725028058361396  28.950617283950617 35  28.164983164983166 35  C 27.379349046015715 35  26.711560044893382 34.725028058361396  26.161616161616163 34.17508417508417  L 17.5 25.513468013468017  L 8.83838383838384 34.17508417508417  C 8.288439955106623 34.725028058361396  7.6206509539842875 35  6.835016835016835 35  C 6.049382716049383 35  5.381593714927049 34.725028058361396  4.831649831649832 34.17508417508417  L 0.8249158249158249 30.168350168350166  C 0.27497194163860855 29.61840628507295  0 28.95061728395062  0 28.164983164983166  C 0 27.379349046015708  0.27497194163860855 26.711560044893375  0.8249158249158249 26.16161616161616  L 9.486531986531986 17.5  L 0.8249158249158249 8.838383838383837  C 0.27497194163860855 8.288439955106618  0 7.6206509539842875  0 6.835016835016835  C 0 6.049382716049382  0.27497194163860855 5.381593714927043  0.8249158249158249 4.831649831649833  L 4.831649831649832 0.824915824915825  C 5.381593714927049 0.27497194163860705  6.049382716049383 0  6.835016835016835 0  C 7.6206509539842875 0  8.288439955106623 0.27497194163860705  8.83838383838384 0.824915824915825  L 17.5 9.486531986531988  L 26.161616161616163 0.824915824915825  C 26.711560044893382 0.27497194163860705  27.379349046015715 0  28.164983164983166 0  C 28.950617283950617 0  29.618406285072957 0.27497194163860705  30.168350168350166 0.824915824915825  L 34.17508417508417 4.831649831649833  C 34.725028058361396 5.381593714927043  35 6.049382716049382  35 6.835016835016835  C 35 7.6206509539842875  34.725028058361396 8.288439955106618  34.17508417508417 8.838383838383837  L 25.51346801346801 17.5  L 34.17508417508417 26.16161616161616  Z " fill-rule="nonzero" fill="rgba(255, 255, 255, 1)" stroke="none" transform="matrix(1 0 0 1 24 41 )" class="fill" />
    <path d="M 34.17508417508417 26.16161616161616  C 34.725028058361396 26.711560044893375  35 27.379349046015708  35 28.164983164983166  C 35 28.95061728395062  34.725028058361396 29.61840628507295  34.17508417508417 30.168350168350166  L 30.168350168350166 34.17508417508417  C 29.618406285072957 34.725028058361396  28.950617283950617 35  28.164983164983166 35  C 27.379349046015715 35  26.711560044893382 34.725028058361396  26.161616161616163 34.17508417508417  L 17.5 25.513468013468017  L 8.83838383838384 34.17508417508417  C 8.288439955106623 34.725028058361396  7.6206509539842875 35  6.835016835016835 35  C 6.049382716049383 35  5.381593714927049 34.725028058361396  4.831649831649832 34.17508417508417  L 0.8249158249158249 30.168350168350166  C 0.27497194163860855 29.61840628507295  0 28.95061728395062  0 28.164983164983166  C 0 27.379349046015708  0.27497194163860855 26.711560044893375  0.8249158249158249 26.16161616161616  L 9.486531986531986 17.5  L 0.8249158249158249 8.838383838383837  C 0.27497194163860855 8.288439955106618  0 7.6206509539842875  0 6.835016835016835  C 0 6.049382716049382  0.27497194163860855 5.381593714927043  0.8249158249158249 4.831649831649833  L 4.831649831649832 0.824915824915825  C 5.381593714927049 0.27497194163860705  6.049382716049383 0  6.835016835016835 0  C 7.6206509539842875 0  8.288439955106623 0.27497194163860705  8.83838383838384 0.824915824915825  L 17.5 9.486531986531988  L 26.161616161616163 0.824915824915825  C 26.711560044893382 0.27497194163860705  27.379349046015715 0  28.164983164983166 0  C 28.950617283950617 0  29.618406285072957 0.27497194163860705  30.168350168350166 0.824915824915825  L 34.17508417508417 4.831649831649833  C 34.725028058361396 5.381593714927043  35 6.049382716049382  35 6.835016835016835  C 35 7.6206509539842875  34.725028058361396 8.288439955106618  34.17508417508417 8.838383838383837  L 25.51346801346801 17.5  L 34.17508417508417 26.16161616161616  Z " stroke-width="0" stroke-dasharray="0" stroke="rgba(255, 255, 255, 0)" fill="none" transform="matrix(1 0 0 1 24 41 )" class="stroke" mask="url(#Clip3559)" />
  </g>
</svg>