<?xml version="1.0" encoding="utf-8"?>
<svg version="1.1" xmlns:xlink="http://www.w3.org/1999/xlink" width="65px" height="65px" xmlns="http://www.w3.org/2000/svg">
  <defs>
    <pattern id="BGPattern" patternUnits="userSpaceOnUse" alignment="0 0" imageRepeat="None" />
    <mask fill="white" id="Clip492">
      <path d="M 0 32.5  C 0 14.299999999999999  14.299999999999999 0  32.5 0  C 50.7 0  65 14.299999999999999  65 32.5  C 65 50.7  50.7 65  32.5 65  C 14.299999999999999 65  0 50.7  0 32.5  Z " fill-rule="evenodd" />
    </mask>
  </defs>
  <g transform="matrix(1 0 0 1 -98 -10 )">
    <path d="M 0 32.5  C 0 14.299999999999999  14.299999999999999 0  32.5 0  C 50.7 0  65 14.299999999999999  65 32.5  C 65 50.7  50.7 65  32.5 65  C 14.299999999999999 65  0 50.7  0 32.5  Z " fill-rule="nonzero" fill="rgba(255, 255, 255, 0)" stroke="none" transform="matrix(1 0 0 1 98 10 )" class="fill" />
    <path d="M 0 32.5  C 0 14.299999999999999  14.299999999999999 0  32.5 0  C 50.7 0  65 14.299999999999999  65 32.5  C 65 50.7  50.7 65  32.5 65  C 14.299999999999999 65  0 50.7  0 32.5  Z " stroke-width="2" stroke-dasharray="0" stroke="rgba(219, 219, 219, 1)" fill="none" transform="matrix(1 0 0 1 98 10 )" class="stroke" mask="url(#Clip492)" />
  </g>
</svg>