<?xml version="1.0" encoding="utf-8"?>
<svg version="1.1" xmlns:xlink="http://www.w3.org/1999/xlink" width="35px" height="27px" xmlns="http://www.w3.org/2000/svg">
  <defs>
    <pattern id="BGPattern" patternUnits="userSpaceOnUse" alignment="0 0" imageRepeat="None" />
    <mask fill="white" id="Clip3564">
      <path d="M 19.3359375 3.577004968062455  C 17.604166666666668 2.8881003075467215  15.7421875 2.543647977288858  13.75 2.543647977288858  C 11.7578125 2.543647977288858  9.895833333333334 2.8881003075467215  8.1640625 3.577004968062455  C 6.432291666666667 4.265909628578186  5.055338541666668 5.199905370238936  4.033203125 6.378992193044711  C 3.0110677083333335 7.558079015850485  2.5 8.823278921220723  2.5 10.174591909155428  C 2.5 11.260941566122545  2.845052083333334 12.30754672344452  3.53515625 13.314407381121363  C 4.225260416666667 14.321268038798202  5.1953125 15.195647030991246  6.4453125 15.9375443577005  L 8.33984375 17.050390347764374  L 7.65625 18.719659332860186  C 8.098958333333334 18.454696001892593  8.502604166666668 18.196356754199194  8.8671875 17.944641589779987  L 9.7265625 17.328601845280343  L 10.76171875 17.527324343506034  C 11.77734375 17.71279867518335  12.7734375 17.805535841022003  13.75 17.805535841022003  C 15.7421875 17.805535841022003  17.604166666666668 17.461083510764137  19.3359375 16.772178850248405  C 21.067708333333336 16.08327418973267  22.444661458333336 15.149278448071918  23.466796875 13.970191625266144  C 24.48893229166667 12.791104802460373  25 11.525904897090134  25 10.174591909155428  C 25 8.823278921220723  24.48893229166667 7.558079015850485  23.466796875 6.378992193044711  C 22.444661458333336 5.199905370238936  21.067708333333336 4.265909628578186  19.3359375 3.577004968062455  Z M 6.845703125 1.3612491128459911  C 8.961588541666668 0.453749704281996  11.263020833333336 0  13.75 0  C 16.236979166666668 0  18.538411458333336 0.453749704281996  20.654296875 1.3612491128459911  C 22.770182291666668 2.26874852140998  24.44010416666667 3.504140052046366  25.6640625 5.067423704755146  C 26.888020833333336 6.630707357463919  27.5 8.333096758930683  27.5 10.174591909155428  C 27.5 12.016087059380173  26.888020833333336 13.718476460846935  25.6640625 15.281760113555714  C 24.44010416666667 16.84504376626449  22.770182291666668 18.080435296900873  20.654296875 18.98793470546487  C 18.538411458333336 19.89543411402886  16.236979166666668 20.34918381831086  13.75 20.34918381831086  C 12.630208333333336 20.34918381831086  11.484375 20.24319848592382  10.3125 20.031227821149756  C 8.697916666666668 21.197066477407144  6.888020833333334 22.04494913650343  4.8828125 22.574875798438608  C 4.4140625 22.694109297374027  3.854166666666667 22.80009462976106  3.203125 22.892831795599715  L 3.14453125 22.892831795599715  C 3.001302083333334 22.892831795599715  2.867838541666667 22.839839129406197  2.744140625 22.73385379701916  C 2.6204427083333335 22.62786846463213  2.545572916666667 22.488762715874145  2.51953125 22.31653655074521  C 2.506510416666667 22.27679205110007  2.5 22.233735509817837  2.5 22.187366926898513  C 2.5 22.140998343979184  2.503255208333334 22.097941802696948  2.509765625 22.05819730305181  C 2.5162760416666665 22.01845280340667  2.529296875 21.978708303761536  2.548828125 21.938963804116394  L 2.59765625 21.83960255500355  C 2.59765625 21.83960255500355  2.6204427083333335 21.80317009699551  2.666015625 21.730305180979418  C 2.711588541666667 21.657440264963327  2.7376302083333335 21.624319848592386  2.744140625 21.630943931866575  C 2.750651041666667 21.63756801514076  2.779947916666667 21.604447598769816  2.83203125 21.531582682753726  C 2.884114583333334 21.458717766737635  2.91015625 21.428909392003785  2.91015625 21.442157558552164  C 2.975260416666667 21.362668559261888  3.125 21.19706647740714  3.359375 20.945351312987935  C 3.59375 20.69363614856872  3.7630208333333335 20.498225691980128  3.8671875 20.359119943222144  C 3.9713541666666665 20.22001419446416  4.117838541666667 20.027915779512654  4.306640625 19.782824698367637  C 4.495442708333334 19.537733617222614  4.658203125 19.28270641116631  4.794921875 19.017743080198724  C 4.931640625 18.75277974923113  5.065104166666667 18.461320085166786  5.1953125 18.143364088005676  C 3.580729166666666 17.189496096522358  2.3111979166666665 16.017033356990773  1.38671875 14.62597586941093  C 0.46223958333333326 13.234918381831086  0 11.751123728412583  0 10.174591909155428  C 0 8.333096758930683  0.6119791666666666 6.630707357463919  1.8359375 5.067423704755146  C 3.0598958333333335 3.504140052046366  4.729817708333333 2.26874852140998  6.845703125 1.3612491128459911  Z M 33.61328125 19.723207948899926  C 32.688802083333336 21.107641353205587  31.41927083333334 22.27679205110007  29.8046875 23.230660042583395  C 29.934895833333332 23.5486160397445  30.068359375 23.84007570380885  30.205078125 24.105039034776436  C 30.341796875000007 24.370002365744025  30.50455729166667 24.625029571800333  30.693359375 24.870120652945353  C 30.882161458333332 25.11521173409037  31.028645833333336 25.30731014904187  31.1328125 25.446415897799856  C 31.23697916666667 25.58552164655784  31.406250000000004 25.78093210314644  31.640625 26.03264726756565  C 31.875000000000004 26.28436243198486  32.024739583333336 26.449964513839603  32.08984375 26.52945351312988  C 32.10286458333334 26.542701679678263  32.12890625000001 26.572510054412113  32.16796875 26.61887863733144  C 32.20703125000001 26.665247220250766  32.236328125 26.698367636621718  32.255859375 26.718239886444287  C 32.27539062500001 26.738112136266857  32.30143229166667 26.771232552637805  32.333984375 26.817601135557133  C 32.366536458333336 26.863969718476458  32.38932291666667 26.900402176484505  32.40234375 26.926898509581264  L 32.451171875 27.02625975869411  C 32.451171875 27.02625975869411  32.464192708333336 27.066004258339248  32.490234375 27.145493257629525  C 32.51627604166667 27.2249822569198  32.51953125 27.268038798202035  32.5 27.274662881476225  C 32.48046875 27.28128696475041  32.473958333333336 27.324343506032648  32.48046875 27.403832505322924  C 32.44140625 27.589306837000237  32.356770833333336 27.735036669032414  32.2265625 27.841022001419446  C 32.09635416666667 27.947007333806482  31.953125 27.99337591672581  31.796875 27.98012775017743  C 31.14583333333334 27.887390584338775  30.585937500000004 27.78140525195174  30.1171875 27.662171753016324  C 28.11197916666667 27.132245091081145  26.302083333333332 26.28436243198486  24.6875 25.118523775727468  C 23.515625 25.33049444050154  22.36979166666667 25.43647977288857  21.25 25.43647977288857  C 17.721354166666668 25.43647977288857  14.6484375 24.56210078069553  12.03125 22.813342796309442  C 12.786458333333334 22.86633546250296  13.359375 22.892831795599715  13.75 22.892831795599715  C 15.846354166666668 22.892831795599715  17.858072916666668 22.594748048261177  19.78515625 21.9985805535841  C 21.712239583333336 21.402413058907026  23.430989583333332 20.54790631653655  24.94140625 19.435060326472676  C 26.569010416666668 18.216229004021763  27.81901041666667 16.81192334989354  28.69140625 15.222143364088007  C 29.56380208333333 13.63236337828247  30 11.949846226638275  30 10.174591909155428  C 30 9.15448308493021  29.850260416666664 8.14762242725337  29.55078125 7.15400993612491  C 31.23046875 8.094629761059851  32.55859375 9.273716583865625  33.53515625 10.691270404542228  C 34.51171875 12.108824225218829  35 13.63236337828247  35 15.261887863733143  C 35 16.85166784953868  34.53776041666667 18.338774544594273  33.61328125 19.723207948899926  Z " fill-rule="evenodd" />
    </mask>
  </defs>
  <g transform="matrix(1 0 0 1 -24 -45 )">
    <path d="M 19.3359375 3.577004968062455  C 17.604166666666668 2.8881003075467215  15.7421875 2.543647977288858  13.75 2.543647977288858  C 11.7578125 2.543647977288858  9.895833333333334 2.8881003075467215  8.1640625 3.577004968062455  C 6.432291666666667 4.265909628578186  5.055338541666668 5.199905370238936  4.033203125 6.378992193044711  C 3.0110677083333335 7.558079015850485  2.5 8.823278921220723  2.5 10.174591909155428  C 2.5 11.260941566122545  2.845052083333334 12.30754672344452  3.53515625 13.314407381121363  C 4.225260416666667 14.321268038798202  5.1953125 15.195647030991246  6.4453125 15.9375443577005  L 8.33984375 17.050390347764374  L 7.65625 18.719659332860186  C 8.098958333333334 18.454696001892593  8.502604166666668 18.196356754199194  8.8671875 17.944641589779987  L 9.7265625 17.328601845280343  L 10.76171875 17.527324343506034  C 11.77734375 17.71279867518335  12.7734375 17.805535841022003  13.75 17.805535841022003  C 15.7421875 17.805535841022003  17.604166666666668 17.461083510764137  19.3359375 16.772178850248405  C 21.067708333333336 16.08327418973267  22.444661458333336 15.149278448071918  23.466796875 13.970191625266144  C 24.48893229166667 12.791104802460373  25 11.525904897090134  25 10.174591909155428  C 25 8.823278921220723  24.48893229166667 7.558079015850485  23.466796875 6.378992193044711  C 22.444661458333336 5.199905370238936  21.067708333333336 4.265909628578186  19.3359375 3.577004968062455  Z M 6.845703125 1.3612491128459911  C 8.961588541666668 0.453749704281996  11.263020833333336 0  13.75 0  C 16.236979166666668 0  18.538411458333336 0.453749704281996  20.654296875 1.3612491128459911  C 22.770182291666668 2.26874852140998  24.44010416666667 3.504140052046366  25.6640625 5.067423704755146  C 26.888020833333336 6.630707357463919  27.5 8.333096758930683  27.5 10.174591909155428  C 27.5 12.016087059380173  26.888020833333336 13.718476460846935  25.6640625 15.281760113555714  C 24.44010416666667 16.84504376626449  22.770182291666668 18.080435296900873  20.654296875 18.98793470546487  C 18.538411458333336 19.89543411402886  16.236979166666668 20.34918381831086  13.75 20.34918381831086  C 12.630208333333336 20.34918381831086  11.484375 20.24319848592382  10.3125 20.031227821149756  C 8.697916666666668 21.197066477407144  6.888020833333334 22.04494913650343  4.8828125 22.574875798438608  C 4.4140625 22.694109297374027  3.854166666666667 22.80009462976106  3.203125 22.892831795599715  L 3.14453125 22.892831795599715  C 3.001302083333334 22.892831795599715  2.867838541666667 22.839839129406197  2.744140625 22.73385379701916  C 2.6204427083333335 22.62786846463213  2.545572916666667 22.488762715874145  2.51953125 22.31653655074521  C 2.506510416666667 22.27679205110007  2.5 22.233735509817837  2.5 22.187366926898513  C 2.5 22.140998343979184  2.503255208333334 22.097941802696948  2.509765625 22.05819730305181  C 2.5162760416666665 22.01845280340667  2.529296875 21.978708303761536  2.548828125 21.938963804116394  L 2.59765625 21.83960255500355  C 2.59765625 21.83960255500355  2.6204427083333335 21.80317009699551  2.666015625 21.730305180979418  C 2.711588541666667 21.657440264963327  2.7376302083333335 21.624319848592386  2.744140625 21.630943931866575  C 2.750651041666667 21.63756801514076  2.779947916666667 21.604447598769816  2.83203125 21.531582682753726  C 2.884114583333334 21.458717766737635  2.91015625 21.428909392003785  2.91015625 21.442157558552164  C 2.975260416666667 21.362668559261888  3.125 21.19706647740714  3.359375 20.945351312987935  C 3.59375 20.69363614856872  3.7630208333333335 20.498225691980128  3.8671875 20.359119943222144  C 3.9713541666666665 20.22001419446416  4.117838541666667 20.027915779512654  4.306640625 19.782824698367637  C 4.495442708333334 19.537733617222614  4.658203125 19.28270641116631  4.794921875 19.017743080198724  C 4.931640625 18.75277974923113  5.065104166666667 18.461320085166786  5.1953125 18.143364088005676  C 3.580729166666666 17.189496096522358  2.3111979166666665 16.017033356990773  1.38671875 14.62597586941093  C 0.46223958333333326 13.234918381831086  0 11.751123728412583  0 10.174591909155428  C 0 8.333096758930683  0.6119791666666666 6.630707357463919  1.8359375 5.067423704755146  C 3.0598958333333335 3.504140052046366  4.729817708333333 2.26874852140998  6.845703125 1.3612491128459911  Z M 33.61328125 19.723207948899926  C 32.688802083333336 21.107641353205587  31.41927083333334 22.27679205110007  29.8046875 23.230660042583395  C 29.934895833333332 23.5486160397445  30.068359375 23.84007570380885  30.205078125 24.105039034776436  C 30.341796875000007 24.370002365744025  30.50455729166667 24.625029571800333  30.693359375 24.870120652945353  C 30.882161458333332 25.11521173409037  31.028645833333336 25.30731014904187  31.1328125 25.446415897799856  C 31.23697916666667 25.58552164655784  31.406250000000004 25.78093210314644  31.640625 26.03264726756565  C 31.875000000000004 26.28436243198486  32.024739583333336 26.449964513839603  32.08984375 26.52945351312988  C 32.10286458333334 26.542701679678263  32.12890625000001 26.572510054412113  32.16796875 26.61887863733144  C 32.20703125000001 26.665247220250766  32.236328125 26.698367636621718  32.255859375 26.718239886444287  C 32.27539062500001 26.738112136266857  32.30143229166667 26.771232552637805  32.333984375 26.817601135557133  C 32.366536458333336 26.863969718476458  32.38932291666667 26.900402176484505  32.40234375 26.926898509581264  L 32.451171875 27.02625975869411  C 32.451171875 27.02625975869411  32.464192708333336 27.066004258339248  32.490234375 27.145493257629525  C 32.51627604166667 27.2249822569198  32.51953125 27.268038798202035  32.5 27.274662881476225  C 32.48046875 27.28128696475041  32.473958333333336 27.324343506032648  32.48046875 27.403832505322924  C 32.44140625 27.589306837000237  32.356770833333336 27.735036669032414  32.2265625 27.841022001419446  C 32.09635416666667 27.947007333806482  31.953125 27.99337591672581  31.796875 27.98012775017743  C 31.14583333333334 27.887390584338775  30.585937500000004 27.78140525195174  30.1171875 27.662171753016324  C 28.11197916666667 27.132245091081145  26.302083333333332 26.28436243198486  24.6875 25.118523775727468  C 23.515625 25.33049444050154  22.36979166666667 25.43647977288857  21.25 25.43647977288857  C 17.721354166666668 25.43647977288857  14.6484375 24.56210078069553  12.03125 22.813342796309442  C 12.786458333333334 22.86633546250296  13.359375 22.892831795599715  13.75 22.892831795599715  C 15.846354166666668 22.892831795599715  17.858072916666668 22.594748048261177  19.78515625 21.9985805535841  C 21.712239583333336 21.402413058907026  23.430989583333332 20.54790631653655  24.94140625 19.435060326472676  C 26.569010416666668 18.216229004021763  27.81901041666667 16.81192334989354  28.69140625 15.222143364088007  C 29.56380208333333 13.63236337828247  30 11.949846226638275  30 10.174591909155428  C 30 9.15448308493021  29.850260416666664 8.14762242725337  29.55078125 7.15400993612491  C 31.23046875 8.094629761059851  32.55859375 9.273716583865625  33.53515625 10.691270404542228  C 34.51171875 12.108824225218829  35 13.63236337828247  35 15.261887863733143  C 35 16.85166784953868  34.53776041666667 18.338774544594273  33.61328125 19.723207948899926  Z " fill-rule="nonzero" fill="rgba(255, 246, 246, 1)" stroke="none" transform="matrix(1 0 0 1 24 45 )" class="fill" />
    <path d="M 19.3359375 3.577004968062455  C 17.604166666666668 2.8881003075467215  15.7421875 2.543647977288858  13.75 2.543647977288858  C 11.7578125 2.543647977288858  9.895833333333334 2.8881003075467215  8.1640625 3.577004968062455  C 6.432291666666667 4.265909628578186  5.055338541666668 5.199905370238936  4.033203125 6.378992193044711  C 3.0110677083333335 7.558079015850485  2.5 8.823278921220723  2.5 10.174591909155428  C 2.5 11.260941566122545  2.845052083333334 12.30754672344452  3.53515625 13.314407381121363  C 4.225260416666667 14.321268038798202  5.1953125 15.195647030991246  6.4453125 15.9375443577005  L 8.33984375 17.050390347764374  L 7.65625 18.719659332860186  C 8.098958333333334 18.454696001892593  8.502604166666668 18.196356754199194  8.8671875 17.944641589779987  L 9.7265625 17.328601845280343  L 10.76171875 17.527324343506034  C 11.77734375 17.71279867518335  12.7734375 17.805535841022003  13.75 17.805535841022003  C 15.7421875 17.805535841022003  17.604166666666668 17.461083510764137  19.3359375 16.772178850248405  C 21.067708333333336 16.08327418973267  22.444661458333336 15.149278448071918  23.466796875 13.970191625266144  C 24.48893229166667 12.791104802460373  25 11.525904897090134  25 10.174591909155428  C 25 8.823278921220723  24.48893229166667 7.558079015850485  23.466796875 6.378992193044711  C 22.444661458333336 5.199905370238936  21.067708333333336 4.265909628578186  19.3359375 3.577004968062455  Z " stroke-width="0" stroke-dasharray="0" stroke="rgba(255, 255, 255, 0)" fill="none" transform="matrix(1 0 0 1 24 45 )" class="stroke" mask="url(#Clip3564)" />
    <path d="M 6.845703125 1.3612491128459911  C 8.961588541666668 0.453749704281996  11.263020833333336 0  13.75 0  C 16.236979166666668 0  18.538411458333336 0.453749704281996  20.654296875 1.3612491128459911  C 22.770182291666668 2.26874852140998  24.44010416666667 3.504140052046366  25.6640625 5.067423704755146  C 26.888020833333336 6.630707357463919  27.5 8.333096758930683  27.5 10.174591909155428  C 27.5 12.016087059380173  26.888020833333336 13.718476460846935  25.6640625 15.281760113555714  C 24.44010416666667 16.84504376626449  22.770182291666668 18.080435296900873  20.654296875 18.98793470546487  C 18.538411458333336 19.89543411402886  16.236979166666668 20.34918381831086  13.75 20.34918381831086  C 12.630208333333336 20.34918381831086  11.484375 20.24319848592382  10.3125 20.031227821149756  C 8.697916666666668 21.197066477407144  6.888020833333334 22.04494913650343  4.8828125 22.574875798438608  C 4.4140625 22.694109297374027  3.854166666666667 22.80009462976106  3.203125 22.892831795599715  L 3.14453125 22.892831795599715  C 3.001302083333334 22.892831795599715  2.867838541666667 22.839839129406197  2.744140625 22.73385379701916  C 2.6204427083333335 22.62786846463213  2.545572916666667 22.488762715874145  2.51953125 22.31653655074521  C 2.506510416666667 22.27679205110007  2.5 22.233735509817837  2.5 22.187366926898513  C 2.5 22.140998343979184  2.503255208333334 22.097941802696948  2.509765625 22.05819730305181  C 2.5162760416666665 22.01845280340667  2.529296875 21.978708303761536  2.548828125 21.938963804116394  L 2.59765625 21.83960255500355  C 2.59765625 21.83960255500355  2.6204427083333335 21.80317009699551  2.666015625 21.730305180979418  C 2.711588541666667 21.657440264963327  2.7376302083333335 21.624319848592386  2.744140625 21.630943931866575  C 2.750651041666667 21.63756801514076  2.779947916666667 21.604447598769816  2.83203125 21.531582682753726  C 2.884114583333334 21.458717766737635  2.91015625 21.428909392003785  2.91015625 21.442157558552164  C 2.975260416666667 21.362668559261888  3.125 21.19706647740714  3.359375 20.945351312987935  C 3.59375 20.69363614856872  3.7630208333333335 20.498225691980128  3.8671875 20.359119943222144  C 3.9713541666666665 20.22001419446416  4.117838541666667 20.027915779512654  4.306640625 19.782824698367637  C 4.495442708333334 19.537733617222614  4.658203125 19.28270641116631  4.794921875 19.017743080198724  C 4.931640625 18.75277974923113  5.065104166666667 18.461320085166786  5.1953125 18.143364088005676  C 3.580729166666666 17.189496096522358  2.3111979166666665 16.017033356990773  1.38671875 14.62597586941093  C 0.46223958333333326 13.234918381831086  0 11.751123728412583  0 10.174591909155428  C 0 8.333096758930683  0.6119791666666666 6.630707357463919  1.8359375 5.067423704755146  C 3.0598958333333335 3.504140052046366  4.729817708333333 2.26874852140998  6.845703125 1.3612491128459911  Z " stroke-width="0" stroke-dasharray="0" stroke="rgba(255, 255, 255, 0)" fill="none" transform="matrix(1 0 0 1 24 45 )" class="stroke" mask="url(#Clip3564)" />
    <path d="M 33.61328125 19.723207948899926  C 32.688802083333336 21.107641353205587  31.41927083333334 22.27679205110007  29.8046875 23.230660042583395  C 29.934895833333332 23.5486160397445  30.068359375 23.84007570380885  30.205078125 24.105039034776436  C 30.341796875000007 24.370002365744025  30.50455729166667 24.625029571800333  30.693359375 24.870120652945353  C 30.882161458333332 25.11521173409037  31.028645833333336 25.30731014904187  31.1328125 25.446415897799856  C 31.23697916666667 25.58552164655784  31.406250000000004 25.78093210314644  31.640625 26.03264726756565  C 31.875000000000004 26.28436243198486  32.024739583333336 26.449964513839603  32.08984375 26.52945351312988  C 32.10286458333334 26.542701679678263  32.12890625000001 26.572510054412113  32.16796875 26.61887863733144  C 32.20703125000001 26.665247220250766  32.236328125 26.698367636621718  32.255859375 26.718239886444287  C 32.27539062500001 26.738112136266857  32.30143229166667 26.771232552637805  32.333984375 26.817601135557133  C 32.366536458333336 26.863969718476458  32.38932291666667 26.900402176484505  32.40234375 26.926898509581264  L 32.451171875 27.02625975869411  C 32.451171875 27.02625975869411  32.464192708333336 27.066004258339248  32.490234375 27.145493257629525  C 32.51627604166667 27.2249822569198  32.51953125 27.268038798202035  32.5 27.274662881476225  C 32.48046875 27.28128696475041  32.473958333333336 27.324343506032648  32.48046875 27.403832505322924  C 32.44140625 27.589306837000237  32.356770833333336 27.735036669032414  32.2265625 27.841022001419446  C 32.09635416666667 27.947007333806482  31.953125 27.99337591672581  31.796875 27.98012775017743  C 31.14583333333334 27.887390584338775  30.585937500000004 27.78140525195174  30.1171875 27.662171753016324  C 28.11197916666667 27.132245091081145  26.302083333333332 26.28436243198486  24.6875 25.118523775727468  C 23.515625 25.33049444050154  22.36979166666667 25.43647977288857  21.25 25.43647977288857  C 17.721354166666668 25.43647977288857  14.6484375 24.56210078069553  12.03125 22.813342796309442  C 12.786458333333334 22.86633546250296  13.359375 22.892831795599715  13.75 22.892831795599715  C 15.846354166666668 22.892831795599715  17.858072916666668 22.594748048261177  19.78515625 21.9985805535841  C 21.712239583333336 21.402413058907026  23.430989583333332 20.54790631653655  24.94140625 19.435060326472676  C 26.569010416666668 18.216229004021763  27.81901041666667 16.81192334989354  28.69140625 15.222143364088007  C 29.56380208333333 13.63236337828247  30 11.949846226638275  30 10.174591909155428  C 30 9.15448308493021  29.850260416666664 8.14762242725337  29.55078125 7.15400993612491  C 31.23046875 8.094629761059851  32.55859375 9.273716583865625  33.53515625 10.691270404542228  C 34.51171875 12.108824225218829  35 13.63236337828247  35 15.261887863733143  C 35 16.85166784953868  34.53776041666667 18.338774544594273  33.61328125 19.723207948899926  Z " stroke-width="0" stroke-dasharray="0" stroke="rgba(255, 255, 255, 0)" fill="none" transform="matrix(1 0 0 1 24 45 )" class="stroke" mask="url(#Clip3564)" />
  </g>
</svg>