<?xml version="1.0" encoding="utf-8"?>
<svg version="1.1" xmlns:xlink="http://www.w3.org/1999/xlink" width="35px" height="34px" xmlns="http://www.w3.org/2000/svg">
  <defs>
    <pattern id="BGPattern" patternUnits="userSpaceOnUse" alignment="0 0" imageRepeat="None" />
    <mask fill="white" id="Clip1774">
      <path d="M 34.17508417508417 25.41414141414141  C 34.725028058361396 25.948372615039276  35 26.59708193041526  35 27.36026936026936  C 35 28.123456790123463  34.725028058361396 28.772166105499437  34.17508417508417 29.306397306397304  L 30.168350168350166 33.1986531986532  C 29.618406285072957 33.73288439955107  28.950617283950617 34  28.164983164983166 34  C 27.379349046015715 34  26.711560044893382 33.73288439955107  26.161616161616163 33.1986531986532  L 17.5 24.784511784511785  L 8.83838383838384 33.1986531986532  C 8.288439955106623 33.73288439955107  7.6206509539842875 34  6.835016835016835 34  C 6.049382716049383 34  5.381593714927049 33.73288439955107  4.831649831649832 33.1986531986532  L 0.8249158249158249 29.306397306397304  C 0.27497194163860855 28.772166105499437  0 28.123456790123463  0 27.36026936026936  C 0 26.59708193041526  0.27497194163860855 25.948372615039276  0.8249158249158249 25.41414141414141  L 9.486531986531986 17  L 0.8249158249158249 8.585858585858585  C 0.27497194163860855 8.051627384960716  0 7.402918069584737  0 6.63973063973064  C 0 5.876543209876543  0.27497194163860855 5.227833894500556  0.8249158249158249 4.693602693602695  L 4.831649831649832 0.8013468013468015  C 5.381593714927049 0.26711560044893257  6.049382716049383 0  6.835016835016835 0  C 7.6206509539842875 0  8.288439955106623 0.26711560044893257  8.83838383838384 0.8013468013468015  L 17.5 9.215488215488216  L 26.161616161616163 0.8013468013468015  C 26.711560044893382 0.26711560044893257  27.379349046015715 0  28.164983164983166 0  C 28.950617283950617 0  29.618406285072957 0.26711560044893257  30.168350168350166 0.8013468013468015  L 34.17508417508417 4.693602693602695  C 34.725028058361396 5.227833894500556  35 5.876543209876543  35 6.63973063973064  C 35 7.402918069584737  34.725028058361396 8.051627384960716  34.17508417508417 8.585858585858585  L 25.51346801346801 17  L 34.17508417508417 25.41414141414141  Z " fill-rule="evenodd" />
    </mask>
  </defs>
  <g transform="matrix(1 0 0 1 -41 -41 )">
    <path d="M 34.17508417508417 25.41414141414141  C 34.725028058361396 25.948372615039276  35 26.59708193041526  35 27.36026936026936  C 35 28.123456790123463  34.725028058361396 28.772166105499437  34.17508417508417 29.306397306397304  L 30.168350168350166 33.1986531986532  C 29.618406285072957 33.73288439955107  28.950617283950617 34  28.164983164983166 34  C 27.379349046015715 34  26.711560044893382 33.73288439955107  26.161616161616163 33.1986531986532  L 17.5 24.784511784511785  L 8.83838383838384 33.1986531986532  C 8.288439955106623 33.73288439955107  7.6206509539842875 34  6.835016835016835 34  C 6.049382716049383 34  5.381593714927049 33.73288439955107  4.831649831649832 33.1986531986532  L 0.8249158249158249 29.306397306397304  C 0.27497194163860855 28.772166105499437  0 28.123456790123463  0 27.36026936026936  C 0 26.59708193041526  0.27497194163860855 25.948372615039276  0.8249158249158249 25.41414141414141  L 9.486531986531986 17  L 0.8249158249158249 8.585858585858585  C 0.27497194163860855 8.051627384960716  0 7.402918069584737  0 6.63973063973064  C 0 5.876543209876543  0.27497194163860855 5.227833894500556  0.8249158249158249 4.693602693602695  L 4.831649831649832 0.8013468013468015  C 5.381593714927049 0.26711560044893257  6.049382716049383 0  6.835016835016835 0  C 7.6206509539842875 0  8.288439955106623 0.26711560044893257  8.83838383838384 0.8013468013468015  L 17.5 9.215488215488216  L 26.161616161616163 0.8013468013468015  C 26.711560044893382 0.26711560044893257  27.379349046015715 0  28.164983164983166 0  C 28.950617283950617 0  29.618406285072957 0.26711560044893257  30.168350168350166 0.8013468013468015  L 34.17508417508417 4.693602693602695  C 34.725028058361396 5.227833894500556  35 5.876543209876543  35 6.63973063973064  C 35 7.402918069584737  34.725028058361396 8.051627384960716  34.17508417508417 8.585858585858585  L 25.51346801346801 17  L 34.17508417508417 25.41414141414141  Z " fill-rule="nonzero" fill="rgba(255, 255, 255, 1)" stroke="none" transform="matrix(1 0 0 1 41 41 )" class="fill" />
    <path d="M 34.17508417508417 25.41414141414141  C 34.725028058361396 25.948372615039276  35 26.59708193041526  35 27.36026936026936  C 35 28.123456790123463  34.725028058361396 28.772166105499437  34.17508417508417 29.306397306397304  L 30.168350168350166 33.1986531986532  C 29.618406285072957 33.73288439955107  28.950617283950617 34  28.164983164983166 34  C 27.379349046015715 34  26.711560044893382 33.73288439955107  26.161616161616163 33.1986531986532  L 17.5 24.784511784511785  L 8.83838383838384 33.1986531986532  C 8.288439955106623 33.73288439955107  7.6206509539842875 34  6.835016835016835 34  C 6.049382716049383 34  5.381593714927049 33.73288439955107  4.831649831649832 33.1986531986532  L 0.8249158249158249 29.306397306397304  C 0.27497194163860855 28.772166105499437  0 28.123456790123463  0 27.36026936026936  C 0 26.59708193041526  0.27497194163860855 25.948372615039276  0.8249158249158249 25.41414141414141  L 9.486531986531986 17  L 0.8249158249158249 8.585858585858585  C 0.27497194163860855 8.051627384960716  0 7.402918069584737  0 6.63973063973064  C 0 5.876543209876543  0.27497194163860855 5.227833894500556  0.8249158249158249 4.693602693602695  L 4.831649831649832 0.8013468013468015  C 5.381593714927049 0.26711560044893257  6.049382716049383 0  6.835016835016835 0  C 7.6206509539842875 0  8.288439955106623 0.26711560044893257  8.83838383838384 0.8013468013468015  L 17.5 9.215488215488216  L 26.161616161616163 0.8013468013468015  C 26.711560044893382 0.26711560044893257  27.379349046015715 0  28.164983164983166 0  C 28.950617283950617 0  29.618406285072957 0.26711560044893257  30.168350168350166 0.8013468013468015  L 34.17508417508417 4.693602693602695  C 34.725028058361396 5.227833894500556  35 5.876543209876543  35 6.63973063973064  C 35 7.402918069584737  34.725028058361396 8.051627384960716  34.17508417508417 8.585858585858585  L 25.51346801346801 17  L 34.17508417508417 25.41414141414141  Z " stroke-width="0" stroke-dasharray="0" stroke="rgba(255, 255, 255, 0)" fill="none" transform="matrix(1 0 0 1 41 41 )" class="stroke" mask="url(#Clip1774)" />
  </g>
</svg>