<?xml version="1.0" encoding="utf-8"?>
<svg version="1.1" xmlns:xlink="http://www.w3.org/1999/xlink" width="70px" height="68px" xmlns="http://www.w3.org/2000/svg">
  <defs>
    <pattern id="BGPattern" patternUnits="userSpaceOnUse" alignment="0 0" imageRepeat="None" />
    <mask fill="white" id="Clip494">
      <path d="M 0 34  C 0 14.959999999999997  15.399999999999999 0  35 0  C 54.6 0  70 14.959999999999997  70 34  C 70 53.04  54.6 68  35 68  C 15.399999999999999 68  0 53.04  0 34  Z " fill-rule="evenodd" />
    </mask>
  </defs>
  <g transform="matrix(1 0 0 1 -23 -24 )">
    <path d="M 0 34  C 0 14.959999999999997  15.399999999999999 0  35 0  C 54.6 0  70 14.959999999999997  70 34  C 70 53.04  54.6 68  35 68  C 15.399999999999999 68  0 53.04  0 34  Z " fill-rule="nonzero" fill="rgba(9, 8, 71, 1)" stroke="none" transform="matrix(1 0 0 1 23 24 )" class="fill" />
    <path d="M 0 34  C 0 14.959999999999997  15.399999999999999 0  35 0  C 54.6 0  70 14.959999999999997  70 34  C 70 53.04  54.6 68  35 68  C 15.399999999999999 68  0 53.04  0 34  Z " stroke-width="2" stroke-dasharray="0" stroke="rgba(121, 121, 121, 0)" fill="none" transform="matrix(1 0 0 1 23 24 )" class="stroke" mask="url(#Clip494)" />
  </g>
</svg>