<?xml version="1.0" encoding="utf-8"?>
<svg version="1.1" xmlns:xlink="http://www.w3.org/1999/xlink" width="56px" height="54px" xmlns="http://www.w3.org/2000/svg">
  <defs>
    <pattern id="BGPattern" patternUnits="userSpaceOnUse" alignment="0 0" imageRepeat="None" />
    <mask fill="white" id="Clip495">
      <path d="M 0 27  C 0 11.879999999999999  12.319999999999999 0  28 0  C 43.68 0  56 11.879999999999999  56 27  C 56 42.120000000000005  43.68 54  28 54  C 12.319999999999999 54  0 42.120000000000005  0 27  Z " fill-rule="evenodd" />
    </mask>
  </defs>
  <g transform="matrix(1 0 0 1 -30 -31 )">
    <path d="M 0 27  C 0 11.879999999999999  12.319999999999999 0  28 0  C 43.68 0  56 11.879999999999999  56 27  C 56 42.120000000000005  43.68 54  28 54  C 12.319999999999999 54  0 42.120000000000005  0 27  Z " fill-rule="nonzero" fill="rgba(9, 8, 71, 1)" stroke="none" transform="matrix(1 0 0 1 30 31 )" class="fill" />
    <path d="M 0 27  C 0 11.879999999999999  12.319999999999999 0  28 0  C 43.68 0  56 11.879999999999999  56 27  C 56 42.120000000000005  43.68 54  28 54  C 12.319999999999999 54  0 42.120000000000005  0 27  Z " stroke-width="4" stroke-dasharray="0" stroke="rgba(249, 244, 244, 1)" fill="none" transform="matrix(1 0 0 1 30 31 )" class="stroke" mask="url(#Clip495)" />
  </g>
</svg>