<?xml version="1.0" encoding="utf-8"?>
<svg version="1.1" xmlns:xlink="http://www.w3.org/1999/xlink" width="35px" height="27px" xmlns="http://www.w3.org/2000/svg">
  <defs>
    <pattern id="BGPattern" patternUnits="userSpaceOnUse" alignment="0 0" imageRepeat="None" />
    <mask fill="white" id="Clip496">
      <path d="M 19.3359375 3.4492547906316533  C 17.604166666666668 2.7849538679914816  15.7421875 2.4528034066713986  13.75 2.4528034066713986  C 11.7578125 2.4528034066713986  9.895833333333334 2.7849538679914816  8.1640625 3.4492547906316533  C 6.432291666666667 4.113555713271822  5.055338541666668 5.014194464158974  4.033203125 6.151171043293115  C 3.0110677083333335 7.288147622427252  2.5 8.50816181689141  2.5 9.811213626685591  C 2.5 10.858765081618168  2.845052083333334 11.867991483321502  3.53515625 12.8388928317956  C 4.225260416666667 13.809794180269696  5.1953125 14.652945351312987  6.4453125 15.368346344925481  L 8.33984375 16.441447835344217  L 7.65625 18.05110007097232  C 8.098958333333334 17.795599716110715  8.502604166666668 17.546486870120653  8.8671875 17.30376153300213  L 9.7265625 16.7097232079489  L 10.76171875 16.901348474095105  C 11.77734375 17.080198722498228  12.7734375 17.16962384669979  13.75 17.16962384669979  C 15.7421875 17.16962384669979  17.604166666666668 16.837473385379706  19.3359375 16.173172462739533  C 21.067708333333336 15.508871540099362  22.444661458333336 14.608232789212206  23.466796875 13.471256210078069  C 24.48893229166667 12.33427963094393  25 11.114265436479773  25 9.811213626685591  C 25 8.50816181689141  24.48893229166667 7.288147622427252  23.466796875 6.151171043293115  C 22.444661458333336 5.014194464158974  21.067708333333336 4.113555713271822  19.3359375 3.4492547906316533  Z M 6.845703125 1.3126330731014915  C 8.961588541666668 0.43754435770049616  11.263020833333336 0  13.75 0  C 16.236979166666668 0  18.538411458333336 0.43754435770049616  20.654296875 1.3126330731014915  C 22.770182291666668 2.187721788502481  24.44010416666667 3.37899219304471  25.6640625 4.886444286728176  C 26.888020833333336 6.393896380411636  27.5 8.035486160397443  27.5 9.811213626685591  C 27.5 11.586941092973738  26.888020833333336 13.228530872959544  25.6640625 14.735982966643009  C 24.44010416666667 16.24343506032647  22.770182291666668 17.4347054648687  20.654296875 18.309794180269694  C 18.538411458333336 19.184882895670683  16.236979166666668 19.622427253371185  13.75 19.622427253371185  C 12.630208333333336 19.622427253371185  11.484375 19.52022711142654  10.3125 19.31582682753726  C 8.697916666666668 20.44002838892832  6.888020833333334 21.25762952448545  4.8828125 21.768630234208658  C 4.4140625 21.88360539389638  3.854166666666667 21.98580553584102  3.203125 22.075230660042582  L 3.14453125 22.075230660042582  C 3.001302083333334 22.075230660042582  2.867838541666667 22.024130589070264  2.744140625 21.92193044712562  C 2.6204427083333335 21.81973030518098  2.545572916666667 21.685592618878637  2.51953125 21.519517388218595  C 2.506510416666667 21.481192334989352  2.5 21.43967352732434  2.5 21.394960965223564  C 2.5 21.350248403122784  2.503255208333334 21.308729595457773  2.509765625 21.27040454222853  C 2.5162760416666665 21.23207948899929  2.529296875 21.19375443577005  2.548828125 21.15542938254081  L 2.59765625 21.059616749467708  C 2.59765625 21.059616749467708  2.6204427083333335 21.024485450674238  2.666015625 20.954222853087295  C 2.711588541666667 20.88396025550035  2.7376302083333335 20.85202271114266  2.744140625 20.858410220014196  C 2.750651041666667 20.864797728885733  2.779947916666667 20.832860184528037  2.83203125 20.762597586941094  C 2.884114583333334 20.69233498935415  2.91015625 20.663591199432222  2.91015625 20.6763662171753  C 2.975260416666667 20.59971611071682  3.125 20.440028388928315  3.359375 20.197303051809794  C 3.59375 19.95457771469127  3.7630208333333335 19.76614620298084  3.8671875 19.632008516678496  C 3.9713541666666665 19.497870830376154  4.117838541666667 19.312633073101487  4.306640625 19.076295244854506  C 4.495442708333334 18.839957416607522  4.658203125 18.594038325053226  4.794921875 18.338537970191627  C 4.931640625 18.08303761533002  5.065104166666667 17.80198722498226  5.1953125 17.49538679914833  C 3.580729166666666 16.57558552164656  2.3111979166666665 15.44499645138396  1.38671875 14.103619588360539  C 0.46223958333333326 12.762242725337119  0 11.331440738112134  0 9.811213626685591  C 0 8.035486160397443  0.6119791666666666 6.393896380411636  1.8359375 4.886444286728176  C 3.0598958333333335 3.37899219304471  4.729817708333333 2.187721788502481  6.845703125 1.3126330731014915  Z M 33.61328125 19.018807665010645  C 32.688802083333336 20.353797019162528  31.41927083333334 21.481192334989352  29.8046875 22.400993612491128  C 29.934895833333332 22.707594038325052  30.068359375 22.98864442867282  30.205078125 23.24414478353442  C 30.341796875000007 23.499645138396026  30.50455729166667 23.745564229950322  30.693359375 23.981902058197306  C 30.882161458333332 24.218239886444284  31.028645833333336 24.403477643718947  31.1328125 24.53761533002129  C 31.23697916666667 24.67175301632363  31.406250000000004 24.860184528034065  31.640625 25.10290986515259  C 31.875000000000004 25.345635202271115  32.024739583333336 25.505322924059616  32.08984375 25.5819730305181  C 32.10286458333334 25.59474804826118  32.12890625000001 25.62349183818311  32.16796875 25.66820440028389  C 32.20703125000001 25.712916962384668  32.236328125 25.74485450674237  32.255859375 25.76401703335699  C 32.27539062500001 25.78317955997161  32.30143229166667 25.81511710432931  32.333984375 25.859829666430095  C 32.366536458333336 25.90454222853087  32.38932291666667 25.939673527324345  32.40234375 25.965223562810504  L 32.451171875 26.061036195883606  C 32.451171875 26.061036195883606  32.464192708333336 26.099361249112846  32.490234375 26.176011355571326  C 32.51627604166667 26.25266146202981  32.51953125 26.29418026969482  32.5 26.300567778566357  C 32.48046875 26.306955287437898  32.473958333333336 26.34847409510291  32.48046875 26.42512420156139  C 32.44140625 26.60397444996451  32.356770833333336 26.744499645138397  32.2265625 26.846699787083036  C 32.09635416666667 26.94889992902768  31.953125 26.993612491128463  31.796875 26.980837473385378  C 31.14583333333334 26.891412349183817  30.585937500000004 26.789212207239178  30.1171875 26.674237047551454  C 28.11197916666667 26.16323633782825  26.302083333333332 25.345635202271115  24.6875 24.221433640880058  C 23.515625 24.425833924769343  22.36979166666667 24.528034066713982  21.25 24.528034066713982  C 17.721354166666668 24.528034066713982  14.6484375 23.68488289567069  12.03125 21.9985805535841  C 12.786458333333334 22.049680624556427  13.359375 22.075230660042582  13.75 22.075230660042582  C 15.846354166666668 22.075230660042582  17.858072916666668 21.78779276082328  19.78515625 21.212916962384668  C 21.712239583333336 20.638041163946063  23.430989583333332 19.81405251951739  24.94140625 18.740951029098653  C 26.569010416666668 17.56564939673527  27.81901041666667 16.211497515968773  28.69140625 14.678495386799149  C 29.56380208333333 13.145493257629523  30 11.523066004258336  30 9.811213626685591  C 30 8.827537260468416  29.850260416666664 7.856635911994322  29.55078125 6.898509581263307  C 31.23046875 7.8055358410219995  32.55859375 8.942512420156138  33.53515625 10.30943931866572  C 34.51171875 11.6763662171753  35 13.145493257629523  35 14.716820440028389  C 35 16.24982256919801  34.53776041666667 17.68381831085876  33.61328125 19.018807665010645  Z " fill-rule="evenodd" />
    </mask>
  </defs>
  <g transform="matrix(1 0 0 1 -41 -45 )">
    <path d="M 19.3359375 3.4492547906316533  C 17.604166666666668 2.7849538679914816  15.7421875 2.4528034066713986  13.75 2.4528034066713986  C 11.7578125 2.4528034066713986  9.895833333333334 2.7849538679914816  8.1640625 3.4492547906316533  C 6.432291666666667 4.113555713271822  5.055338541666668 5.014194464158974  4.033203125 6.151171043293115  C 3.0110677083333335 7.288147622427252  2.5 8.50816181689141  2.5 9.811213626685591  C 2.5 10.858765081618168  2.845052083333334 11.867991483321502  3.53515625 12.8388928317956  C 4.225260416666667 13.809794180269696  5.1953125 14.652945351312987  6.4453125 15.368346344925481  L 8.33984375 16.441447835344217  L 7.65625 18.05110007097232  C 8.098958333333334 17.795599716110715  8.502604166666668 17.546486870120653  8.8671875 17.30376153300213  L 9.7265625 16.7097232079489  L 10.76171875 16.901348474095105  C 11.77734375 17.080198722498228  12.7734375 17.16962384669979  13.75 17.16962384669979  C 15.7421875 17.16962384669979  17.604166666666668 16.837473385379706  19.3359375 16.173172462739533  C 21.067708333333336 15.508871540099362  22.444661458333336 14.608232789212206  23.466796875 13.471256210078069  C 24.48893229166667 12.33427963094393  25 11.114265436479773  25 9.811213626685591  C 25 8.50816181689141  24.48893229166667 7.288147622427252  23.466796875 6.151171043293115  C 22.444661458333336 5.014194464158974  21.067708333333336 4.113555713271822  19.3359375 3.4492547906316533  Z M 6.845703125 1.3126330731014915  C 8.961588541666668 0.43754435770049616  11.263020833333336 0  13.75 0  C 16.236979166666668 0  18.538411458333336 0.43754435770049616  20.654296875 1.3126330731014915  C 22.770182291666668 2.187721788502481  24.44010416666667 3.37899219304471  25.6640625 4.886444286728176  C 26.888020833333336 6.393896380411636  27.5 8.035486160397443  27.5 9.811213626685591  C 27.5 11.586941092973738  26.888020833333336 13.228530872959544  25.6640625 14.735982966643009  C 24.44010416666667 16.24343506032647  22.770182291666668 17.4347054648687  20.654296875 18.309794180269694  C 18.538411458333336 19.184882895670683  16.236979166666668 19.622427253371185  13.75 19.622427253371185  C 12.630208333333336 19.622427253371185  11.484375 19.52022711142654  10.3125 19.31582682753726  C 8.697916666666668 20.44002838892832  6.888020833333334 21.25762952448545  4.8828125 21.768630234208658  C 4.4140625 21.88360539389638  3.854166666666667 21.98580553584102  3.203125 22.075230660042582  L 3.14453125 22.075230660042582  C 3.001302083333334 22.075230660042582  2.867838541666667 22.024130589070264  2.744140625 21.92193044712562  C 2.6204427083333335 21.81973030518098  2.545572916666667 21.685592618878637  2.51953125 21.519517388218595  C 2.506510416666667 21.481192334989352  2.5 21.43967352732434  2.5 21.394960965223564  C 2.5 21.350248403122784  2.503255208333334 21.308729595457773  2.509765625 21.27040454222853  C 2.5162760416666665 21.23207948899929  2.529296875 21.19375443577005  2.548828125 21.15542938254081  L 2.59765625 21.059616749467708  C 2.59765625 21.059616749467708  2.6204427083333335 21.024485450674238  2.666015625 20.954222853087295  C 2.711588541666667 20.88396025550035  2.7376302083333335 20.85202271114266  2.744140625 20.858410220014196  C 2.750651041666667 20.864797728885733  2.779947916666667 20.832860184528037  2.83203125 20.762597586941094  C 2.884114583333334 20.69233498935415  2.91015625 20.663591199432222  2.91015625 20.6763662171753  C 2.975260416666667 20.59971611071682  3.125 20.440028388928315  3.359375 20.197303051809794  C 3.59375 19.95457771469127  3.7630208333333335 19.76614620298084  3.8671875 19.632008516678496  C 3.9713541666666665 19.497870830376154  4.117838541666667 19.312633073101487  4.306640625 19.076295244854506  C 4.495442708333334 18.839957416607522  4.658203125 18.594038325053226  4.794921875 18.338537970191627  C 4.931640625 18.08303761533002  5.065104166666667 17.80198722498226  5.1953125 17.49538679914833  C 3.580729166666666 16.57558552164656  2.3111979166666665 15.44499645138396  1.38671875 14.103619588360539  C 0.46223958333333326 12.762242725337119  0 11.331440738112134  0 9.811213626685591  C 0 8.035486160397443  0.6119791666666666 6.393896380411636  1.8359375 4.886444286728176  C 3.0598958333333335 3.37899219304471  4.729817708333333 2.187721788502481  6.845703125 1.3126330731014915  Z M 33.61328125 19.018807665010645  C 32.688802083333336 20.353797019162528  31.41927083333334 21.481192334989352  29.8046875 22.400993612491128  C 29.934895833333332 22.707594038325052  30.068359375 22.98864442867282  30.205078125 23.24414478353442  C 30.341796875000007 23.499645138396026  30.50455729166667 23.745564229950322  30.693359375 23.981902058197306  C 30.882161458333332 24.218239886444284  31.028645833333336 24.403477643718947  31.1328125 24.53761533002129  C 31.23697916666667 24.67175301632363  31.406250000000004 24.860184528034065  31.640625 25.10290986515259  C 31.875000000000004 25.345635202271115  32.024739583333336 25.505322924059616  32.08984375 25.5819730305181  C 32.10286458333334 25.59474804826118  32.12890625000001 25.62349183818311  32.16796875 25.66820440028389  C 32.20703125000001 25.712916962384668  32.236328125 25.74485450674237  32.255859375 25.76401703335699  C 32.27539062500001 25.78317955997161  32.30143229166667 25.81511710432931  32.333984375 25.859829666430095  C 32.366536458333336 25.90454222853087  32.38932291666667 25.939673527324345  32.40234375 25.965223562810504  L 32.451171875 26.061036195883606  C 32.451171875 26.061036195883606  32.464192708333336 26.099361249112846  32.490234375 26.176011355571326  C 32.51627604166667 26.25266146202981  32.51953125 26.29418026969482  32.5 26.300567778566357  C 32.48046875 26.306955287437898  32.473958333333336 26.34847409510291  32.48046875 26.42512420156139  C 32.44140625 26.60397444996451  32.356770833333336 26.744499645138397  32.2265625 26.846699787083036  C 32.09635416666667 26.94889992902768  31.953125 26.993612491128463  31.796875 26.980837473385378  C 31.14583333333334 26.891412349183817  30.585937500000004 26.789212207239178  30.1171875 26.674237047551454  C 28.11197916666667 26.16323633782825  26.302083333333332 25.345635202271115  24.6875 24.221433640880058  C 23.515625 24.425833924769343  22.36979166666667 24.528034066713982  21.25 24.528034066713982  C 17.721354166666668 24.528034066713982  14.6484375 23.68488289567069  12.03125 21.9985805535841  C 12.786458333333334 22.049680624556427  13.359375 22.075230660042582  13.75 22.075230660042582  C 15.846354166666668 22.075230660042582  17.858072916666668 21.78779276082328  19.78515625 21.212916962384668  C 21.712239583333336 20.638041163946063  23.430989583333332 19.81405251951739  24.94140625 18.740951029098653  C 26.569010416666668 17.56564939673527  27.81901041666667 16.211497515968773  28.69140625 14.678495386799149  C 29.56380208333333 13.145493257629523  30 11.523066004258336  30 9.811213626685591  C 30 8.827537260468416  29.850260416666664 7.856635911994322  29.55078125 6.898509581263307  C 31.23046875 7.8055358410219995  32.55859375 8.942512420156138  33.53515625 10.30943931866572  C 34.51171875 11.6763662171753  35 13.145493257629523  35 14.716820440028389  C 35 16.24982256919801  34.53776041666667 17.68381831085876  33.61328125 19.018807665010645  Z " fill-rule="nonzero" fill="rgba(255, 246, 246, 1)" stroke="none" transform="matrix(1 0 0 1 41 45 )" class="fill" />
    <path d="M 19.3359375 3.4492547906316533  C 17.604166666666668 2.7849538679914816  15.7421875 2.4528034066713986  13.75 2.4528034066713986  C 11.7578125 2.4528034066713986  9.895833333333334 2.7849538679914816  8.1640625 3.4492547906316533  C 6.432291666666667 4.113555713271822  5.055338541666668 5.014194464158974  4.033203125 6.151171043293115  C 3.0110677083333335 7.288147622427252  2.5 8.50816181689141  2.5 9.811213626685591  C 2.5 10.858765081618168  2.845052083333334 11.867991483321502  3.53515625 12.8388928317956  C 4.225260416666667 13.809794180269696  5.1953125 14.652945351312987  6.4453125 15.368346344925481  L 8.33984375 16.441447835344217  L 7.65625 18.05110007097232  C 8.098958333333334 17.795599716110715  8.502604166666668 17.546486870120653  8.8671875 17.30376153300213  L 9.7265625 16.7097232079489  L 10.76171875 16.901348474095105  C 11.77734375 17.080198722498228  12.7734375 17.16962384669979  13.75 17.16962384669979  C 15.7421875 17.16962384669979  17.604166666666668 16.837473385379706  19.3359375 16.173172462739533  C 21.067708333333336 15.508871540099362  22.444661458333336 14.608232789212206  23.466796875 13.471256210078069  C 24.48893229166667 12.33427963094393  25 11.114265436479773  25 9.811213626685591  C 25 8.50816181689141  24.48893229166667 7.288147622427252  23.466796875 6.151171043293115  C 22.444661458333336 5.014194464158974  21.067708333333336 4.113555713271822  19.3359375 3.4492547906316533  Z " stroke-width="0" stroke-dasharray="0" stroke="rgba(255, 255, 255, 0)" fill="none" transform="matrix(1 0 0 1 41 45 )" class="stroke" mask="url(#Clip496)" />
    <path d="M 6.845703125 1.3126330731014915  C 8.961588541666668 0.43754435770049616  11.263020833333336 0  13.75 0  C 16.236979166666668 0  18.538411458333336 0.43754435770049616  20.654296875 1.3126330731014915  C 22.770182291666668 2.187721788502481  24.44010416666667 3.37899219304471  25.6640625 4.886444286728176  C 26.888020833333336 6.393896380411636  27.5 8.035486160397443  27.5 9.811213626685591  C 27.5 11.586941092973738  26.888020833333336 13.228530872959544  25.6640625 14.735982966643009  C 24.44010416666667 16.24343506032647  22.770182291666668 17.4347054648687  20.654296875 18.309794180269694  C 18.538411458333336 19.184882895670683  16.236979166666668 19.622427253371185  13.75 19.622427253371185  C 12.630208333333336 19.622427253371185  11.484375 19.52022711142654  10.3125 19.31582682753726  C 8.697916666666668 20.44002838892832  6.888020833333334 21.25762952448545  4.8828125 21.768630234208658  C 4.4140625 21.88360539389638  3.854166666666667 21.98580553584102  3.203125 22.075230660042582  L 3.14453125 22.075230660042582  C 3.001302083333334 22.075230660042582  2.867838541666667 22.024130589070264  2.744140625 21.92193044712562  C 2.6204427083333335 21.81973030518098  2.545572916666667 21.685592618878637  2.51953125 21.519517388218595  C 2.506510416666667 21.481192334989352  2.5 21.43967352732434  2.5 21.394960965223564  C 2.5 21.350248403122784  2.503255208333334 21.308729595457773  2.509765625 21.27040454222853  C 2.5162760416666665 21.23207948899929  2.529296875 21.19375443577005  2.548828125 21.15542938254081  L 2.59765625 21.059616749467708  C 2.59765625 21.059616749467708  2.6204427083333335 21.024485450674238  2.666015625 20.954222853087295  C 2.711588541666667 20.88396025550035  2.7376302083333335 20.85202271114266  2.744140625 20.858410220014196  C 2.750651041666667 20.864797728885733  2.779947916666667 20.832860184528037  2.83203125 20.762597586941094  C 2.884114583333334 20.69233498935415  2.91015625 20.663591199432222  2.91015625 20.6763662171753  C 2.975260416666667 20.59971611071682  3.125 20.440028388928315  3.359375 20.197303051809794  C 3.59375 19.95457771469127  3.7630208333333335 19.76614620298084  3.8671875 19.632008516678496  C 3.9713541666666665 19.497870830376154  4.117838541666667 19.312633073101487  4.306640625 19.076295244854506  C 4.495442708333334 18.839957416607522  4.658203125 18.594038325053226  4.794921875 18.338537970191627  C 4.931640625 18.08303761533002  5.065104166666667 17.80198722498226  5.1953125 17.49538679914833  C 3.580729166666666 16.57558552164656  2.3111979166666665 15.44499645138396  1.38671875 14.103619588360539  C 0.46223958333333326 12.762242725337119  0 11.331440738112134  0 9.811213626685591  C 0 8.035486160397443  0.6119791666666666 6.393896380411636  1.8359375 4.886444286728176  C 3.0598958333333335 3.37899219304471  4.729817708333333 2.187721788502481  6.845703125 1.3126330731014915  Z " stroke-width="0" stroke-dasharray="0" stroke="rgba(255, 255, 255, 0)" fill="none" transform="matrix(1 0 0 1 41 45 )" class="stroke" mask="url(#Clip496)" />
    <path d="M 33.61328125 19.018807665010645  C 32.688802083333336 20.353797019162528  31.41927083333334 21.481192334989352  29.8046875 22.400993612491128  C 29.934895833333332 22.707594038325052  30.068359375 22.98864442867282  30.205078125 23.24414478353442  C 30.341796875000007 23.499645138396026  30.50455729166667 23.745564229950322  30.693359375 23.981902058197306  C 30.882161458333332 24.218239886444284  31.028645833333336 24.403477643718947  31.1328125 24.53761533002129  C 31.23697916666667 24.67175301632363  31.406250000000004 24.860184528034065  31.640625 25.10290986515259  C 31.875000000000004 25.345635202271115  32.024739583333336 25.505322924059616  32.08984375 25.5819730305181  C 32.10286458333334 25.59474804826118  32.12890625000001 25.62349183818311  32.16796875 25.66820440028389  C 32.20703125000001 25.712916962384668  32.236328125 25.74485450674237  32.255859375 25.76401703335699  C 32.27539062500001 25.78317955997161  32.30143229166667 25.81511710432931  32.333984375 25.859829666430095  C 32.366536458333336 25.90454222853087  32.38932291666667 25.939673527324345  32.40234375 25.965223562810504  L 32.451171875 26.061036195883606  C 32.451171875 26.061036195883606  32.464192708333336 26.099361249112846  32.490234375 26.176011355571326  C 32.51627604166667 26.25266146202981  32.51953125 26.29418026969482  32.5 26.300567778566357  C 32.48046875 26.306955287437898  32.473958333333336 26.34847409510291  32.48046875 26.42512420156139  C 32.44140625 26.60397444996451  32.356770833333336 26.744499645138397  32.2265625 26.846699787083036  C 32.09635416666667 26.94889992902768  31.953125 26.993612491128463  31.796875 26.980837473385378  C 31.14583333333334 26.891412349183817  30.585937500000004 26.789212207239178  30.1171875 26.674237047551454  C 28.11197916666667 26.16323633782825  26.302083333333332 25.345635202271115  24.6875 24.221433640880058  C 23.515625 24.425833924769343  22.36979166666667 24.528034066713982  21.25 24.528034066713982  C 17.721354166666668 24.528034066713982  14.6484375 23.68488289567069  12.03125 21.9985805535841  C 12.786458333333334 22.049680624556427  13.359375 22.075230660042582  13.75 22.075230660042582  C 15.846354166666668 22.075230660042582  17.858072916666668 21.78779276082328  19.78515625 21.212916962384668  C 21.712239583333336 20.638041163946063  23.430989583333332 19.81405251951739  24.94140625 18.740951029098653  C 26.569010416666668 17.56564939673527  27.81901041666667 16.211497515968773  28.69140625 14.678495386799149  C 29.56380208333333 13.145493257629523  30 11.523066004258336  30 9.811213626685591  C 30 8.827537260468416  29.850260416666664 7.856635911994322  29.55078125 6.898509581263307  C 31.23046875 7.8055358410219995  32.55859375 8.942512420156138  33.53515625 10.30943931866572  C 34.51171875 11.6763662171753  35 13.145493257629523  35 14.716820440028389  C 35 16.24982256919801  34.53776041666667 17.68381831085876  33.61328125 19.018807665010645  Z " stroke-width="0" stroke-dasharray="0" stroke="rgba(255, 255, 255, 0)" fill="none" transform="matrix(1 0 0 1 41 45 )" class="stroke" mask="url(#Clip496)" />
  </g>
</svg>